<svg width="26" height="26" viewBox="0 0 26 26" fill="none" xmlns="http://www.w3.org/2000/svg">
<path d="M9.14858 15.364H11.8335H11.9835V15.514V24.9851V25.1595L11.811 25.1334L11.1847 25.0384L9.14858 15.364ZM9.14858 15.364V13.7411H11.8335H11.9835V13.5911V11.0377C11.9835 9.48713 12.355 8.49548 12.942 7.88388C13.528 7.27342 14.4038 6.9526 15.6612 6.9526C16.5606 6.9526 16.971 7.00067 17.3148 7.04384V8.33533H16.13C15.3142 8.33533 14.6453 8.7915 14.2984 9.39786C13.9574 9.99398 13.8557 10.6971 13.8557 11.3952V13.5901V13.7401H14.0057H17.1706L16.9197 15.3629H14.0057H13.8557V15.5129V25V25.1718L14.0259 25.1486L14.6448 25.0643C20.574 24.2589 25.15 19.1742 25.15 13.0192C25.15 6.30503 19.704 0.85 13 0.85C6.29597 0.85 0.85 6.30503 0.85 13.0192C0.85 19.1146 5.33858 24.1587 11.1845 25.0384L9.14858 15.364ZM18.6175 12.3474H15.2466V11.3952C15.2466 10.8406 15.3488 10.3627 15.5048 10.09C15.5874 9.94561 15.6579 9.86178 15.7418 9.80999C15.8247 9.75883 15.9388 9.72798 16.13 9.72798H18.5558H18.7058V9.57798V5.92228V5.79122L18.5759 5.77364L18.1029 5.70962L18.1029 5.70962L18.0893 5.70777C17.7512 5.66193 16.9993 5.55994 15.6612 5.55994C14.1612 5.55994 12.8503 5.96948 11.9394 6.91854C11.0294 7.86654 10.5925 9.26546 10.5925 11.0377V12.3485H7.90767H7.75767V12.4985V16.6066V16.7566H7.90767H10.5925V23.4698C5.81655 22.3708 2.24091 18.1394 2.24091 13.0192C2.24091 7.06077 7.05167 2.24266 13 2.24266C18.9483 2.24266 23.7591 7.06077 23.7591 13.0192C23.7591 18.1974 20.1036 22.4683 15.2466 23.5069V16.7555H17.9837H18.1123L18.1319 16.6284L18.7658 12.5203L18.7925 12.3474H18.6175Z" fill="#FDFEFD" stroke="#FDFEFD" stroke-width="0.3"/>
</svg>
