<svg width="24" height="24" viewBox="0 0 24 24" fill="none" xmlns="http://www.w3.org/2000/svg">
<path d="M11.9999 2.16219C15.2041 2.16219 15.5836 2.17443 16.849 2.23216C18.019 2.28556 18.6544 2.481 19.0772 2.64534C19.5985 2.83771 20.0699 3.14444 20.457 3.54299C20.8556 3.93007 21.1623 4.40154 21.3547 4.92275C21.519 5.3456 21.7145 5.98098 21.7678 7.15096C21.8256 8.41635 21.8378 8.79585 21.8378 12.0001C21.8378 15.2043 21.8256 15.5837 21.7678 16.8492C21.7144 18.0192 21.519 18.6545 21.3547 19.0774C21.155 19.5949 20.8493 20.0649 20.457 20.4572C20.0648 20.8494 19.5948 21.1552 19.0772 21.3548C18.6544 21.5191 18.019 21.7146 16.849 21.768C15.5839 21.8257 15.2044 21.838 11.9999 21.838C8.79547 21.838 8.41611 21.8257 7.15082 21.768C5.98084 21.7146 5.3455 21.5191 4.92261 21.3548C4.4014 21.1624 3.92992 20.8557 3.54285 20.4571C3.1443 20.0701 2.83757 19.5986 2.64519 19.0774C2.48086 18.6545 2.28537 18.0192 2.23202 16.8492C2.17429 15.5838 2.16205 15.2043 2.16205 12.0001C2.16205 8.79585 2.17429 8.41645 2.23202 7.15096C2.28542 5.98098 2.48086 5.34564 2.64519 4.92275C2.83759 4.40151 3.14435 3.93002 3.54295 3.54295C3.93002 3.1444 4.40149 2.83766 4.9227 2.64529C5.34555 2.48095 5.98093 2.28546 7.15091 2.23212C8.4163 2.17438 8.7958 2.16214 12 2.16214M12 0C8.74102 0 8.33223 0.0138138 7.0525 0.0722127C5.77521 0.130516 4.90294 0.333341 4.13965 0.630003C3.33896 0.931316 2.61363 1.40366 2.01424 2.0141C1.40367 2.61345 0.93119 3.33878 0.629765 4.13951C0.333341 4.90284 0.130516 5.77511 0.0724508 7.05241C0.0138138 8.33213 0 8.74093 0 11.9999C0 15.2589 0.0138138 15.6677 0.0724508 16.9474C0.130754 18.2247 0.333579 19.097 0.630241 19.8603C0.931556 20.661 1.4039 21.3863 2.01433 21.9857C2.61372 22.5962 3.33905 23.0685 4.13975 23.3698C4.90308 23.6665 5.77535 23.8693 7.0526 23.9276C8.33251 23.986 8.74116 23.9998 12.0001 23.9998C15.2591 23.9998 15.6679 23.986 16.9476 23.9276C18.2249 23.8693 19.0972 23.6665 19.8605 23.3698C20.6576 23.0615 21.3816 22.5901 21.9859 21.9857C22.5903 21.3814 23.0617 20.6574 23.37 19.8603C23.6667 19.097 23.8695 18.2247 23.9278 16.9474C23.9862 15.6675 24 15.2589 24 11.9999C24 8.74097 23.9862 8.33213 23.9278 7.05241C23.8695 5.77511 23.6667 4.90284 23.37 4.13956C23.0687 3.33886 22.5963 2.61353 21.9859 2.01414C21.3865 1.40359 20.6611 0.931142 19.8603 0.629765C19.097 0.333341 18.2247 0.130516 16.9474 0.0724508C15.6677 0.0138138 15.2589 0 11.9999 0H12Z" fill="#FDFEFD"/>
<path d="M11.9999 5.83789C10.7811 5.83789 9.58976 6.19929 8.57641 6.8764C7.56305 7.5535 6.77323 8.51589 6.30684 9.64188C5.84044 10.7679 5.71841 12.0069 5.95617 13.2022C6.19394 14.3975 6.78083 15.4955 7.64262 16.3573C8.50441 17.2191 9.6024 17.806 10.7977 18.0438C11.9931 18.2815 13.2321 18.1595 14.358 17.6931C15.484 17.2267 16.4464 16.4369 17.1235 15.4235C17.8006 14.4102 18.162 13.2188 18.162 12C18.162 10.3657 17.5128 8.79836 16.3572 7.64274C15.2016 6.48711 13.6342 5.83789 11.9999 5.83789ZM11.9999 16C11.2088 16 10.4354 15.7654 9.77767 15.3258C9.11989 14.8863 8.60721 14.2616 8.30447 13.5307C8.00173 12.7998 7.92253 11.9956 8.07687 11.2196C8.23122 10.4437 8.61218 9.73102 9.17158 9.17162C9.73099 8.61222 10.4437 8.23127 11.2196 8.07693C11.9955 7.9226 12.7998 8.00181 13.5307 8.30456C14.2616 8.60731 14.8863 9.11999 15.3258 9.77778C15.7653 10.4356 15.9999 11.2089 15.9999 12C15.9999 13.0609 15.5785 14.0783 14.8283 14.8284C14.0782 15.5785 13.0608 16 11.9999 16Z" fill="#FDFEFD"/>
<path d="M18.4055 7.03423C19.2008 7.03423 19.8455 6.38954 19.8455 5.59426C19.8455 4.79899 19.2008 4.1543 18.4055 4.1543C17.6103 4.1543 16.9656 4.79899 16.9656 5.59426C16.9656 6.38954 17.6103 7.03423 18.4055 7.03423Z" fill="#FDFEFD"/>
</svg>
