<svg width="24" height="24" viewBox="0 0 24 24" fill="none" xmlns="http://www.w3.org/2000/svg">
<path d="M6.12179 19.266L6.26023 18.773L5.81335 18.523C2.67622 16.7679 0.65 13.7575 0.65 10.3775C0.65 5.09046 5.63971 0.65 12 0.65C18.3603 0.65 23.35 5.09046 23.35 10.3775C23.35 15.6644 18.3603 20.1049 12 20.1049C11.1745 20.1049 10.3696 20.0253 9.59122 19.8808L9.3201 19.8305L9.09549 19.9905L5.12405 22.819L6.12179 19.266Z" stroke="#FDFEFD" stroke-width="1.3"/>
<path fill-rule="evenodd" clip-rule="evenodd" d="M16.5714 13.4296V7.93563C16.5714 7.59867 16.8274 7.3252 17.1428 7.3252C17.4583 7.3252 17.7143 7.59867 17.7143 7.93563V9.66214L19.7343 7.50421C19.9577 7.26552 20.3194 7.26552 20.5423 7.50421C20.7657 7.74289 20.7657 8.1293 20.5423 8.36737L18.8793 10.1439C18.8869 10.1532 18.8944 10.1627 18.9016 10.1726L21.0205 13.052C21.2154 13.3169 21.1725 13.7009 20.9245 13.9091C20.6765 14.1172 20.3171 14.0714 20.1222 13.8065L18.0662 11.0125L17.7343 11.3671C17.7277 11.3741 17.7211 11.3809 17.7143 11.3875V13.4296C17.7143 13.7665 17.4583 14.04 17.1428 14.04C16.8274 14.04 16.5714 13.7665 16.5714 13.4296Z" fill="#FDFEFD"/>
<path fill-rule="evenodd" clip-rule="evenodd" d="M12.5714 7.93563V13.4293V13.4296C12.5714 13.7665 12.8274 14.04 13.1428 14.04C13.1489 14.04 13.1549 14.0399 13.1609 14.0397H15.4286C15.744 14.0397 16 13.7662 16 13.4293C16 13.0923 15.744 12.8188 15.4286 12.8188H13.7143V7.93563C13.7143 7.59867 13.4583 7.3252 13.1428 7.3252C12.8274 7.3252 12.5714 7.59867 12.5714 7.93563Z" fill="#FDFEFD"/>
<path d="M11.9618 13.2109L10.1212 7.71694C10.0383 7.48558 9.83719 7.34396 9.61948 7.33297C9.55605 7.32992 9.31091 7.33114 9.25319 7.33236C9.02919 7.33663 8.82062 7.47948 8.73548 7.71694L6.89491 13.2109C6.78176 13.5259 6.92919 13.8787 7.22405 13.9996C7.51891 14.1204 7.84919 13.9629 7.96233 13.648L8.24005 12.819H10.6172L10.8949 13.648C11.008 13.9629 11.3383 14.1198 11.6332 13.9996C11.928 13.8793 12.0749 13.5253 11.9618 13.2109ZM8.64919 11.5981L9.42862 9.27111L10.208 11.5981H8.64919Z" fill="#FDFEFD"/>
<path fill-rule="evenodd" clip-rule="evenodd" d="M5.71415 8.54607H6.85706C7.17248 8.54607 7.42848 8.2726 7.42848 7.93563C7.42848 7.59867 7.17248 7.3252 6.85706 7.3252H3.42848C3.11306 7.3252 2.85706 7.59867 2.85706 7.93563C2.85706 8.2726 3.11306 8.54607 3.42848 8.54607H4.57129V13.4293C4.57129 13.7662 4.82729 14.0397 5.14272 14.0397C5.45815 14.0397 5.71415 13.7662 5.71415 13.4293V8.54607Z" fill="#FDFEFD"/>
</svg>
