<svg width="40" height="40" viewBox="0 0 40 40" fill="none" xmlns="http://www.w3.org/2000/svg">
<path d="M20.4535 13.1421L19.171 11.8594C17.9804 10.6689 16.3656 10 14.6819 10C12.9982 10 11.3834 10.6689 10.1928 11.8594C9.00223 13.05 8.33337 14.6648 8.33337 16.3485C8.33337 18.0322 9.00223 19.647 10.1928 20.8376L16.5779 27.2227C16.5872 27.232 16.5964 27.2413 16.6057 27.2506L19.8122 30.4571C19.9893 30.6342 20.2214 30.7227 20.4535 30.7227" stroke="#375F51" stroke-opacity="0.8" stroke-width="2" stroke-linecap="round" stroke-linejoin="round"/>
<path d="M20.4537 13.142L21.7363 11.8594C22.9268 10.6689 24.5416 10 26.2253 10C27.9091 10 29.5238 10.6689 30.7144 11.8594C31.905 13.05 32.5738 14.6648 32.5738 16.3485C32.5738 18.0322 31.905 19.647 30.7144 20.8376L21.095 30.457C20.9179 30.6341 20.6858 30.7226 20.4537 30.7226" stroke="#375F51" stroke-opacity="0.8" stroke-width="2" stroke-linecap="round" stroke-linejoin="round"/>
</svg>
