<svg width="42" height="42" viewBox="0 0 42 42" fill="none" xmlns="http://www.w3.org/2000/svg">
<circle cx="21" cy="21" r="20" stroke="#375F51" stroke-width="2"/>
<path d="M20.9999 11.1622C24.2041 11.1622 24.5836 11.1744 25.849 11.2322C27.019 11.2856 27.6544 11.481 28.0772 11.6453C28.5985 11.8377 29.0699 12.1444 29.457 12.543C29.8556 12.9301 30.1623 13.4015 30.3547 13.9228C30.519 14.3456 30.7145 14.981 30.7678 16.151C30.8256 17.4164 30.8378 17.7958 30.8378 21.0001C30.8378 24.2043 30.8256 24.5837 30.7678 25.8492C30.7144 27.0192 30.519 27.6545 30.3547 28.0774C30.155 28.5949 29.8493 29.0649 29.457 29.4572C29.0648 29.8494 28.5948 30.1552 28.0772 30.3548C27.6544 30.5191 27.019 30.7146 25.849 30.768C24.5839 30.8257 24.2044 30.838 20.9999 30.838C17.7955 30.838 17.4161 30.8257 16.1508 30.768C14.9808 30.7146 14.3455 30.5191 13.9226 30.3548C13.4014 30.1624 12.9299 29.8557 12.5429 29.4571C12.1443 29.0701 11.8376 28.5986 11.6452 28.0774C11.4809 27.6545 11.2854 27.0192 11.232 25.8492C11.1743 24.5838 11.162 24.2043 11.162 21.0001C11.162 17.7958 11.1743 17.4164 11.232 16.151C11.2854 14.981 11.4809 14.3456 11.6452 13.9228C11.8376 13.4015 12.1444 12.93 12.5429 12.5429C12.93 12.1444 13.4015 11.8377 13.9227 11.6453C14.3455 11.481 14.9809 11.2855 16.1509 11.2321C17.4163 11.1744 17.7958 11.1621 21 11.1621M21 9C17.741 9 17.3322 9.01381 16.0525 9.07221C14.7752 9.13052 13.9029 9.33334 13.1397 9.63C12.339 9.93132 11.6136 10.4037 11.0142 11.0141C10.4037 11.6134 9.93119 12.3388 9.62977 13.1395C9.33334 13.9028 9.13052 14.7751 9.07245 16.0524C9.01381 17.3321 9 17.7409 9 20.9999C9 24.2589 9.01381 24.6677 9.07245 25.9474C9.13075 27.2247 9.33358 28.097 9.63024 28.8603C9.93156 29.661 10.4039 30.3863 11.0143 30.9857C11.6137 31.5962 12.3391 32.0685 13.1397 32.3698C13.9031 32.6665 14.7753 32.8693 16.0526 32.9276C17.3325 32.986 17.7412 32.9998 21.0001 32.9998C24.2591 32.9998 24.6679 32.986 25.9476 32.9276C27.2249 32.8693 28.0972 32.6665 28.8605 32.3698C29.6576 32.0615 30.3816 31.5901 30.9859 30.9857C31.5903 30.3814 32.0617 29.6574 32.37 28.8603C32.6667 28.097 32.8695 27.2247 32.9278 25.9474C32.9862 24.6675 33 24.2589 33 20.9999C33 17.741 32.9862 17.3321 32.9278 16.0524C32.8695 14.7751 32.6667 13.9028 32.37 13.1396C32.0687 12.3389 31.5963 11.6135 30.9859 11.0141C30.3865 10.4036 29.6611 9.93114 28.8603 9.62977C28.097 9.33334 27.2247 9.13052 25.9474 9.07245C24.6677 9.01381 24.2589 9 20.9999 9H21Z" fill="#375F51"/>
<path d="M20.9999 14.8379C19.7812 14.8379 18.5898 15.1993 17.5764 15.8764C16.5631 16.5535 15.7733 17.5159 15.3069 18.6419C14.8405 19.7679 14.7184 21.0069 14.9562 22.2022C15.194 23.3975 15.7809 24.4955 16.6426 25.3573C17.5044 26.2191 18.6024 26.806 19.7978 27.0438C20.9931 27.2815 22.2321 27.1595 23.3581 26.6931C24.4841 26.2267 25.4465 25.4369 26.1236 24.4235C26.8007 23.4102 27.1621 22.2188 27.1621 21C27.1621 19.3657 26.5128 17.7984 25.3572 16.6427C24.2016 15.4871 22.6342 14.8379 20.9999 14.8379ZM20.9999 25C20.2088 25 19.4355 24.7654 18.7777 24.3258C18.1199 23.8863 17.6072 23.2616 17.3045 22.5307C17.0018 21.7998 16.9226 20.9956 17.0769 20.2196C17.2312 19.4437 17.6122 18.731 18.1716 18.1716C18.731 17.6122 19.4437 17.2313 20.2196 17.0769C20.9956 16.9226 21.7998 17.0018 22.5307 17.3046C23.2616 17.6073 23.8863 18.12 24.3258 18.7778C24.7653 19.4356 24.9999 20.2089 24.9999 21C24.9999 22.0609 24.5785 23.0783 23.8283 23.8284C23.0782 24.5785 22.0608 25 20.9999 25Z" fill="#375F51"/>
<path d="M27.4055 16.0342C28.2008 16.0342 28.8455 15.3895 28.8455 14.5943C28.8455 13.799 28.2008 13.1543 27.4055 13.1543C26.6102 13.1543 25.9655 13.799 25.9655 14.5943C25.9655 15.3895 26.6102 16.0342 27.4055 16.0342Z" fill="#375F51"/>
</svg>
