<svg width="40" height="40" viewBox="0 0 40 40" fill="none" xmlns="http://www.w3.org/2000/svg">
<path d="M28.1946 33.0349H10.1391C9.14189 33.0349 8.3335 32.2265 8.3335 31.2293V30.6261C8.3335 28.0024 9.96125 25.6539 12.4181 24.7332C16.7695 23.1023 21.5642 23.1023 25.9155 24.7332C28.3724 25.6539 30.0002 28.0024 30.0002 30.6261V31.2293C30.0002 32.2265 29.1918 33.0349 28.1946 33.0349Z" stroke="#375F51" stroke-opacity="0.8" stroke-width="2" stroke-linecap="round" stroke-linejoin="round"/>
<path d="M16.8812 18.9818C18.6091 19.8694 20.6589 19.8694 22.3868 18.9818C23.9949 18.1558 25.147 16.6513 25.5254 14.8834L25.6263 14.4116C26.0131 12.6038 25.5999 10.717 24.4929 9.23634L24.3308 9.01954C23.2237 7.53867 21.483 6.66667 19.634 6.66667C17.785 6.66667 16.0443 7.53867 14.9372 9.01954L14.7751 9.23634C13.668 10.717 13.2549 12.6038 13.6417 14.4116L13.7427 14.8834C14.1209 16.6513 15.2731 18.1558 16.8812 18.9818Z" stroke="#375F51" stroke-opacity="0.8" stroke-width="2" stroke-linecap="round" stroke-linejoin="round"/>
</svg>
